<?xml version="1.0" encoding="UTF-8"?> <svg xmlns="http://www.w3.org/2000/svg" width="304" height="304" viewBox="0 0 304 304" fill="none"><rect width="304" height="304" fill="white"></rect><path d="M122.694 192.352C122.694 192.352 115.614 196.661 127.621 197.893C142.121 199.741 149.787 199.432 165.793 196.356C165.793 196.356 170.102 199.129 175.953 201.282C139.93 216.674 94.3693 200.358 122.694 192.352ZM118.076 172.343C118.076 172.343 110.379 178.193 122.385 179.422C138.083 180.96 150.402 181.269 171.644 176.963C171.644 176.963 174.418 180.043 179.032 181.582C135.628 194.511 86.9833 182.81 118.076 172.345V172.343ZM203.045 207.438C203.045 207.438 208.278 211.747 197.195 215.136C176.567 221.292 110.687 223.142 92.2158 215.136C85.7544 212.362 98.067 208.358 102.067 207.747C106.07 206.823 108.223 206.823 108.223 206.823C101.143 201.897 61.1201 216.983 87.9042 221.324C161.482 233.333 222.132 216.091 203.043 207.47L203.045 207.438ZM126.08 151.406C126.08 151.406 92.5219 159.412 114.07 162.18C123.306 163.409 141.469 163.104 158.402 161.871C172.256 160.641 186.141 158.177 186.141 158.177C186.141 158.177 181.214 160.332 177.829 162.486C143.628 171.422 78.054 167.419 96.8344 158.183C112.847 150.485 126.08 151.406 126.08 151.406ZM186.109 184.963C220.593 167.106 204.58 149.867 193.498 152.024C190.724 152.638 189.495 153.253 189.495 153.253C189.495 153.253 190.418 151.406 192.574 150.795C214.431 143.097 231.673 173.884 185.495 185.89C185.495 185.89 185.804 185.582 186.109 184.967V184.963ZM129.465 233.601C162.714 235.757 213.511 232.371 214.743 216.667C214.743 216.667 212.285 222.824 187.345 227.442C159.023 232.675 123.924 232.06 103.3 228.671C103.3 228.671 107.608 232.365 129.468 233.597L129.465 233.601Z" fill="#4E7896"></path><path d="M165.147 49.8125C165.147 49.8125 184.234 69.2078 146.985 98.4506C117.121 122.154 140.208 135.702 146.985 151.091C129.437 135.393 116.819 121.536 125.434 108.606C138.087 89.5296 172.87 80.2934 165.147 49.8125ZM155.297 138.167C164.224 148.326 152.838 157.562 152.838 157.562C152.838 157.562 175.619 145.867 165.154 131.393C155.609 117.539 148.221 110.765 188.243 87.673C188.243 87.673 125.131 103.371 155.304 138.16L155.297 138.167Z" fill="#F58219"></path></svg> 